<svg width="16" height="16" viewBox="0 0 16 16" fill="none" xmlns="http://www.w3.org/2000/svg">
<g clip-path="url(#clip0_1787_10298)">
<path d="M6.66662 12.6668C6.51085 12.6671 6.35989 12.6128 6.23995 12.5135C6.17245 12.4575 6.11665 12.3888 6.07574 12.3112C6.03484 12.2336 6.00965 12.1488 6.00159 12.0614C5.99354 11.9741 6.0028 11.8861 6.02883 11.8023C6.05486 11.7186 6.09715 11.6408 6.15329 11.5735L9.13995 8.00012L6.25995 4.42012C6.20458 4.35193 6.16322 4.27347 6.13827 4.18924C6.11331 4.10501 6.10525 4.01669 6.11454 3.92933C6.12384 3.84198 6.1503 3.75733 6.19242 3.68024C6.23453 3.60315 6.29147 3.53514 6.35995 3.48012C6.42893 3.41943 6.50971 3.37365 6.59722 3.34566C6.68472 3.31767 6.77707 3.30807 6.86847 3.31746C6.95986 3.32685 7.04833 3.35503 7.12832 3.40023C7.20831 3.44543 7.27809 3.50667 7.33329 3.58012L10.5533 7.58012C10.6513 7.69941 10.7049 7.84904 10.7049 8.00346C10.7049 8.15787 10.6513 8.3075 10.5533 8.42679L7.21995 12.4268C7.15307 12.5075 7.06812 12.5712 6.97198 12.6129C6.87584 12.6546 6.77122 12.6731 6.66662 12.6668Z" fill="white"/>
</g>
<defs>
<clipPath id="clip0_1787_10298">
<rect width="16" height="16" fill="white"/>
</clipPath>
</defs>
</svg>
