<svg xmlns="http://www.w3.org/2000/svg">
    <defs>

        <symbol id="done-all-outline" viewBox="0 0 24 24">
            <path d="M16.62 6.21C16.5165 6.12804 16.3977 6.0674 16.2707 6.03156C16.1436 5.99573 16.0107 5.98542 15.8796 6.00122C15.7485 6.01703 15.6218 6.05864 15.5069 6.12365C15.392 6.18866 15.2911 6.27579 15.21 6.38L8.20999 15.38L4.77999 11.2C4.69954 11.0929 4.59839 11.0031 4.48255 10.9358C4.3667 10.8686 4.23853 10.8253 4.10563 10.8085C3.97273 10.7917 3.83782 10.8018 3.70891 10.8382C3.57999 10.8746 3.4597 10.9365 3.35516 11.0203C3.25063 11.104 3.16399 11.2079 3.10039 11.3258C3.03679 11.4437 2.99752 11.5732 2.98491 11.7065C2.9723 11.8399 2.98661 11.9744 3.027 12.1021C3.06738 12.2298 3.13301 12.3481 3.21999 12.45L7.38999 17.63C7.48411 17.746 7.60303 17.8395 7.73801 17.9035C7.87299 17.9675 8.0206 18.0005 8.16999 18C8.32857 18.0071 8.48656 17.9763 8.63088 17.9102C8.77521 17.8442 8.90174 17.7447 8.99999 17.62L16.83 7.62C16.9098 7.51403 16.9678 7.39323 17.0004 7.26464C17.0331 7.13605 17.0399 7.00224 17.0203 6.87101C17.0008 6.73978 16.9553 6.61376 16.8866 6.50027C16.8179 6.38679 16.7272 6.28811 16.62 6.21Z"
                  fill="black"/>
            <path d="M21.62 6.21C21.5165 6.12804 21.3977 6.0674 21.2707 6.03156C21.1436 5.99573 21.0107 5.98542 20.8796 6.00122C20.7485 6.01703 20.6218 6.05864 20.5069 6.12365C20.392 6.18866 20.2911 6.27579 20.21 6.38L13.21 15.38L12.6 14.63L11.34 16.25L12.44 17.62C12.5341 17.736 12.653 17.8295 12.788 17.8935C12.923 17.9575 13.0706 17.9905 13.22 17.99C13.3702 17.9893 13.5183 17.9548 13.6534 17.889C13.7884 17.8232 13.9069 17.7279 14 17.61L21.83 7.61C21.9083 7.50434 21.9649 7.38427 21.9967 7.25668C22.0285 7.1291 22.0349 6.99649 22.0154 6.86645C21.9959 6.73641 21.9509 6.61149 21.8831 6.49885C21.8152 6.38621 21.7258 6.28805 21.62 6.21Z"
                  fill="black"/>
            <path d="M8.71 13.06L10 11.44L9.8 11.2C9.72105 11.0906 9.62079 10.9983 9.50525 10.9287C9.3897 10.8591 9.26127 10.8136 9.12767 10.7949C8.99408 10.7762 8.85808 10.7848 8.72787 10.82C8.59766 10.8552 8.47593 10.9165 8.37 11C8.26728 11.0825 8.18187 11.1845 8.1187 11.3002C8.05552 11.4158 8.01583 11.5428 8.00189 11.6738C7.98795 11.8048 8.00004 11.9373 8.03747 12.0637C8.07491 12.19 8.13694 12.3077 8.22 12.41L8.71 13.06Z"
                  fill="black"/>
        </symbol>

        <symbol id="checkmark-outline" viewBox="0 0 24 24">
            <path d="M9.85999 18C9.72288 17.9996 9.58732 17.9709 9.46173 17.9159C9.33615 17.8608 9.22323 17.7805 9.12999 17.68L4.26999 12.51C4.08832 12.3164 3.991 12.0585 3.99944 11.7932C4.00788 11.5278 4.12139 11.2767 4.31499 11.095C4.5086 10.9133 4.76645 10.816 5.03181 10.8244C5.29718 10.8329 5.54832 10.9464 5.72999 11.14L9.84999 15.53L18.26 6.33C18.3453 6.22372 18.4515 6.13602 18.572 6.07227C18.6925 6.00851 18.8247 5.97007 18.9606 5.95928C19.0965 5.9485 19.2331 5.9656 19.3621 6.00955C19.4912 6.0535 19.6098 6.12336 19.7109 6.21485C19.8119 6.30633 19.8932 6.41751 19.9497 6.54154C20.0062 6.66558 20.0368 6.79986 20.0395 6.93614C20.0422 7.07242 20.0171 7.20781 19.9656 7.33401C19.9141 7.46021 19.8373 7.57455 19.74 7.67L10.6 17.67C10.5076 17.7724 10.3951 17.8545 10.2695 17.9113C10.1439 17.9681 10.0078 17.9983 9.86999 18H9.85999Z"
                  fill="black"/>
        </symbol>

        <symbol id="fill-bell" viewBox="0 0 24 24">
            <path fill-rule="evenodd" clip-rule="evenodd"
                  d="M14 18.3413C14 19.2403 13.084 20.0003 12 20.0003C10.916 20.0003 10 19.2403 10 18.3413V18.0003H14V18.3413ZM20.521 15.2073L18.72 13.4043V8.93629C18.72 5.45529 16.218 2.49929 12.899 2.05929C10.978 1.80429 9.038 2.39029 7.583 3.66629C6.119 4.94829 5.28 6.79329 5.28 8.72729L5.279 13.4043L3.479 15.2083C3.01 15.6773 2.871 16.3773 3.125 16.9903C3.38 17.6033 3.973 18.0003 4.637 18.0003H8V18.3413C8 20.3593 9.794 22.0003 12 22.0003C14.206 22.0003 16 20.3593 16 18.3413V18.0003H19.362C20.026 18.0003 20.619 17.6043 20.873 16.9903C21.128 16.3773 20.989 15.6773 20.521 15.2073Z"
                  fill="black"/>
            <mask id="mask0_10881_17319" style="mask-type:luminance" maskUnits="userSpaceOnUse" x="2" y="2" width="19"
                  height="21">
                <path fill-rule="evenodd" clip-rule="evenodd"
                      d="M14 18.3413C14 19.2403 13.084 20.0003 12 20.0003C10.916 20.0003 10 19.2403 10 18.3413V18.0003H14V18.3413ZM20.521 15.2073L18.72 13.4043V8.93629C18.72 5.45529 16.218 2.49929 12.899 2.05929C10.978 1.80429 9.038 2.39029 7.583 3.66629C6.119 4.94829 5.28 6.79329 5.28 8.72729L5.279 13.4043L3.479 15.2083C3.01 15.6773 2.871 16.3773 3.125 16.9903C3.38 17.6033 3.973 18.0003 4.637 18.0003H8V18.3413C8 20.3593 9.794 22.0003 12 22.0003C14.206 22.0003 16 20.3593 16 18.3413V18.0003H19.362C20.026 18.0003 20.619 17.6043 20.873 16.9903C21.128 16.3773 20.989 15.6773 20.521 15.2073Z"
                      fill="white"/>
            </mask>
        </symbol>

        <symbol id="outline-bell" viewBox="0 0 24 24">
            <path fill-rule="evenodd" clip-rule="evenodd"
                  d="M2.5146 18L3.6946 16.818C4.0726 16.44 4.2806 15.938 4.2806 15.404V10.727C4.2806 9.36999 4.8706 8.07299 5.9006 7.17099C6.9386 6.26099 8.2606 5.86099 9.6376 6.04199C11.9646 6.35099 13.7196 8.45499 13.7196 10.937V15.404C13.7196 15.938 13.9276 16.44 14.3046 16.817L15.4856 18H2.5146ZM10.9996 20.341C10.9996 21.24 10.0836 22 8.9996 22C7.9156 22 6.9996 21.24 6.9996 20.341V20H10.9996V20.341ZM17.5206 17.208L15.7196 15.404V10.937C15.7196 7.45599 13.2176 4.49899 9.8996 4.05999C7.9776 3.80399 6.0376 4.39099 4.5826 5.66699C3.1186 6.94899 2.2806 8.79299 2.2806 10.727L2.2796 15.404L0.478603 17.208C0.00960291 17.678 -0.129397 18.377 0.124603 18.99C0.379603 19.604 0.972603 20 1.6366 20H4.9996V20.341C4.9996 22.359 6.7936 24 8.9996 24C11.2056 24 12.9996 22.359 12.9996 20.341V20H16.3626C17.0266 20 17.6186 19.604 17.8726 18.991C18.1276 18.377 17.9896 17.677 17.5206 17.208Z"
                  fill="black"/>
            <circle cx="17.5" cy="6.5" r="6.5" fill="#CC1439"/>
            <path d="M17.5089 10.0994C17.0212 10.0994 16.5856 10.0154 16.2021 9.8473C15.8209 9.67921 15.5191 9.44602 15.2965 9.14773C15.0763 8.84706 14.958 8.49905 14.9414 8.10369H16.0565C16.0707 8.31913 16.1429 8.50616 16.2731 8.66477C16.4057 8.82102 16.5785 8.94176 16.7915 9.02699C17.0046 9.11222 17.2414 9.15483 17.5018 9.15483C17.7882 9.15483 18.0415 9.10511 18.2617 9.00568C18.4843 8.90625 18.6583 8.76776 18.7837 8.5902C18.9092 8.41027 18.9719 8.20312 18.9719 7.96875C18.9719 7.72491 18.9092 7.51065 18.7837 7.32599C18.6606 7.13897 18.4795 6.99219 18.2404 6.88565C18.0037 6.77912 17.7172 6.72585 17.381 6.72585H16.7667V5.83097H17.381C17.6509 5.83097 17.8877 5.78243 18.0913 5.68537C18.2972 5.5883 18.4582 5.45336 18.5742 5.28054C18.6902 5.10535 18.7482 4.90057 18.7482 4.66619C18.7482 4.44129 18.6973 4.24598 18.5955 4.08026C18.4961 3.91217 18.354 3.78078 18.1694 3.68608C17.9871 3.59138 17.7717 3.54403 17.5231 3.54403C17.2863 3.54403 17.065 3.58783 16.859 3.67543C16.6554 3.76065 16.4897 3.88376 16.3619 4.04474C16.234 4.20336 16.1654 4.39394 16.1559 4.61648H15.0941C15.1059 4.22348 15.2219 3.87784 15.4421 3.57955C15.6647 3.28125 15.9582 3.04806 16.3228 2.87997C16.6874 2.71188 17.0922 2.62784 17.5373 2.62784C18.0037 2.62784 18.4061 2.71899 18.7447 2.90128C19.0856 3.0812 19.3484 3.3215 19.533 3.62216C19.7201 3.92282 19.8124 4.25189 19.81 4.60938C19.8124 5.01657 19.6987 5.36222 19.4691 5.64631C19.2418 5.9304 18.9388 6.12098 18.56 6.21804V6.27486C19.043 6.34825 19.417 6.54001 19.6822 6.85014C19.9497 7.16027 20.0823 7.54498 20.0799 8.00426C20.0823 8.40436 19.971 8.76302 19.7461 9.08026C19.5236 9.39749 19.2193 9.64725 18.8335 9.82955C18.4476 10.0095 18.006 10.0994 17.5089 10.0994Z"
                  fill="white"/>
        </symbol>

        <symbol id="play-circle" viewBox="0 0 24 24">
            <path d="M11.5 14.6L14.31 12L11.5 9.39999V14.6Z" fill="black"/>
            <path d="M12 2C10.0222 2 8.08879 2.58649 6.4443 3.6853C4.79981 4.78412 3.51809 6.3459 2.76121 8.17317C2.00433 10.0004 1.8063 12.0111 2.19215 13.9509C2.578 15.8907 3.53041 17.6725 4.92894 19.0711C6.32746 20.4696 8.10929 21.422 10.0491 21.8079C11.9889 22.1937 13.9996 21.9957 15.8268 21.2388C17.6541 20.4819 19.2159 19.2002 20.3147 17.5557C21.4135 15.9112 22 13.9778 22 12C22 10.6868 21.7413 9.38642 21.2388 8.17317C20.7363 6.95991 19.9997 5.85752 19.0711 4.92893C18.1425 4.00035 17.0401 3.26375 15.8268 2.7612C14.6136 2.25866 13.3132 2 12 2ZM16 13.18L12.36 16.55C12.042 16.8378 11.6289 16.9981 11.2 17C10.962 16.9994 10.7268 16.9483 10.51 16.85C10.2151 16.7307 9.96238 16.5262 9.78426 16.2625C9.60613 15.9989 9.51065 15.6882 9.51 15.37V8.63C9.51065 8.31184 9.60613 8.00109 9.78426 7.73747C9.96238 7.47384 10.2151 7.26931 10.51 7.15C10.8138 7.0132 11.1512 6.9687 11.4801 7.02204C11.809 7.07537 12.115 7.22419 12.36 7.45L16 10.82C16.1637 10.9699 16.2944 11.1522 16.3838 11.3554C16.4733 11.5585 16.5195 11.778 16.5195 12C16.5195 12.222 16.4733 12.4415 16.3838 12.6446C16.2944 12.8478 16.1637 13.0301 16 13.18Z" fill="black"/>
        </symbol>






        <!-- File Icon -->
        <symbol id="file" viewBox="0 0 24 24">
            <path d="M14.5 13.5V5.41a1 1 0 0 0-.3-.7L9.8.29A1 1 0 0 0 9.08 0H1.5v13.5A2.5
       2.5 0 0 0 4 16h8a2.5 2.5 0 0 0 2.5-2.5m-1.5 0v-7H8v-5H3v12a1 1 0 0 0 1 1h8a1
       1 0 0 0 1-1M9.5 5V2.12L12.38 5zM5.13 5h-.62v1.25h2.12V5zm-.62 3h7.12v1.25H4.5zm.62 3h-.62v1.25h7.12V11z"
                  clip-rule="evenodd" fill="currentColor" fill-rule="evenodd"/>
        </symbol>

        <!-- Home Icon -->
        <symbol id="home" viewBox="0 0 24 24">
            <path d="M14 14H10V21H14V14Z" fill="black"/>
            <path d="M20.42 10.18L12.71 2.3C12.617 2.20627 12.5064 2.13188 12.3846 2.08111C12.2627 2.03034 12.132 2.0042 12 2.0042C11.868 2.0042 11.7373 2.03034 11.6154 2.08111C11.4936 2.13188 11.383 2.20627 11.29 2.3L3.57999 10.19C3.39343 10.3781 3.24609 10.6013 3.14652 10.8468C3.04695 11.0923 2.99715 11.3551 2.99999 11.62V20C2.99922 20.5119 3.19477 21.0046 3.54637 21.3767C3.89797 21.7488 4.37885 21.9718 4.88999 22H7.99999V13C7.99999 12.7348 8.10535 12.4804 8.29289 12.2929C8.48042 12.1054 8.73478 12 8.99999 12H15C15.2652 12 15.5196 12.1054 15.7071 12.2929C15.8946 12.4804 16 12.7348 16 13V22H19.11C19.6211 21.9718 20.102 21.7488 20.4536 21.3767C20.8052 21.0046 21.0008 20.5119 21 20V11.62C21.0008 11.0829 20.7928 10.5666 20.42 10.18Z"
                  fill="black"/>
        </symbol>

        <symbol id="copyOutline" viewBox="0 0 24 24">
            <path d="M18 21H12C11.2044 21 10.4413 20.6839 9.87868 20.1213C9.31607 19.5587 9 18.7956 9 18V12C9 11.2044 9.31607 10.4413 9.87868 9.87868C10.4413 9.31607 11.2044 9 12 9H18C18.7956 9 19.5587 9.31607 20.1213 9.87868C20.6839 10.4413 21 11.2044 21 12V18C21 18.7956 20.6839 19.5587 20.1213 20.1213C19.5587 20.6839 18.7956 21 18 21ZM12 11C11.7348 11 11.4804 11.1054 11.2929 11.2929C11.1054 11.4804 11 11.7348 11 12V18C11 18.2652 11.1054 18.5196 11.2929 18.7071C11.4804 18.8946 11.7348 19 12 19H18C18.2652 19 18.5196 18.8946 18.7071 18.7071C18.8946 18.5196 19 18.2652 19 18V12C19 11.7348 18.8946 11.4804 18.7071 11.2929C18.5196 11.1054 18.2652 11 18 11H12Z"
                  fill="black"/>
            <path d="M9.73 15H5.67C4.96268 14.9974 4.28509 14.7152 3.78494 14.2151C3.28478 13.7149 3.00263 13.0373 3 12.33V5.67C3.00263 4.96268 3.28478 4.28509 3.78494 3.78494C4.28509 3.28478 4.96268 3.00263 5.67 3H12.33C13.0373 3.00263 13.7149 3.28478 14.2151 3.78494C14.7152 4.28509 14.9974 4.96268 15 5.67V9.4H13V5.67C13 5.49231 12.9294 5.32189 12.8038 5.19624C12.6781 5.07059 12.5077 5 12.33 5H5.67C5.49231 5 5.32189 5.07059 5.19624 5.19624C5.07059 5.32189 5 5.49231 5 5.67V12.33C5 12.5077 5.07059 12.6781 5.19624 12.8038C5.32189 12.9294 5.49231 13 5.67 13H9.73V15Z"
                  fill="black"/>

        </symbol>

        <!-- plus-square-outline Icon -->
        <symbol id="plusOutline" viewBox="0 0 24 24">
            <path d="M18 3H6C5.20435 3 4.44129 3.31607 3.87868 3.87868C3.31607 4.44129 3 5.20435 3 6V18C3 18.7956 3.31607 19.5587 3.87868 20.1213C4.44129 20.6839 5.20435 21 6 21H18C18.7956 21 19.5587 20.6839 20.1213 20.1213C20.6839 19.5587 21 18.7956 21 18V6C21 5.20435 20.6839 4.44129 20.1213 3.87868C19.5587 3.31607 18.7956 3 18 3ZM19 18C19 18.2652 18.8946 18.5196 18.7071 18.7071C18.5196 18.8946 18.2652 19 18 19H6C5.73478 19 5.48043 18.8946 5.29289 18.7071C5.10536 18.5196 5 18.2652 5 18V6C5 5.73478 5.10536 5.48043 5.29289 5.29289C5.48043 5.10536 5.73478 5 6 5H18C18.2652 5 18.5196 5.10536 18.7071 5.29289C18.8946 5.48043 19 5.73478 19 6V18Z"
                  fill="black"/>
            <path d="M15 11H13V9C13 8.73478 12.8946 8.48043 12.7071 8.29289C12.5196 8.10536 12.2652 8 12 8C11.7348 8 11.4804 8.10536 11.2929 8.29289C11.1054 8.48043 11 8.73478 11 9V11H9C8.73478 11 8.48043 11.1054 8.29289 11.2929C8.10536 11.4804 8 11.7348 8 12C8 12.2652 8.10536 12.5196 8.29289 12.7071C8.48043 12.8946 8.73478 13 9 13H11V15C11 15.2652 11.1054 15.5196 11.2929 15.7071C11.4804 15.8946 11.7348 16 12 16C12.2652 16 12.5196 15.8946 12.7071 15.7071C12.8946 15.5196 13 15.2652 13 15V13H15C15.2652 13 15.5196 12.8946 15.7071 12.7071C15.8946 12.5196 16 12.2652 16 12C16 11.7348 15.8946 11.4804 15.7071 11.2929C15.5196 11.1054 15.2652 11 15 11Z"
                  fill="black"/>

        </symbol>
    </defs>
</svg>




